<svg width="246" height="49" viewBox="0 0 246 49" fill="none" xmlns="http://www.w3.org/2000/svg">
<g filter="url(#filter0_d_29_298)">
<path d="M18.9434 39.384C11.3914 39.384 7.23144 35.896 6.46344 28.92L9.91944 28.44C10.3994 31.16 11.3594 33.128 12.7994 34.344C14.2714 35.528 16.3994 36.12 19.1834 36.12C21.5514 36.12 23.3914 35.592 24.7034 34.536C26.0474 33.448 26.7194 31.96 26.7194 30.072C26.7194 28.856 26.4314 27.88 25.8554 27.144C25.3114 26.408 24.4634 25.816 23.3114 25.368C22.1914 24.888 20.7674 24.456 19.0394 24.072C16.9274 23.592 15.0874 23.016 13.5194 22.344C11.9514 21.672 10.7354 20.712 9.87144 19.464C9.00744 18.216 8.57544 16.488 8.57544 14.28C8.57544 12.392 9.03944 10.712 9.96744 9.24C10.9274 7.736 12.2234 6.568 13.8554 5.736C15.5194 4.872 17.4074 4.44 19.5194 4.44C22.4634 4.44 24.8634 5.24 26.7194 6.84C28.6074 8.44 29.7274 10.664 30.0794 13.512L26.8634 14.088C26.4154 11.88 25.5834 10.264 24.3674 9.24C23.1834 8.216 21.5354 7.704 19.4234 7.704C17.2474 7.704 15.5034 8.296 14.1914 9.48C12.9114 10.632 12.2714 12.184 12.2714 14.136C12.2714 16.216 12.9434 17.72 14.2874 18.648C15.6314 19.576 17.6794 20.328 20.4314 20.904C22.5434 21.352 24.3354 21.912 25.8074 22.584C27.3114 23.224 28.4474 24.136 29.2154 25.32C30.0154 26.472 30.4154 28.04 30.4154 30.024C30.4154 31.88 29.9194 33.512 28.9274 34.92C27.9674 36.328 26.6234 37.432 24.8954 38.232C23.1674 39 21.1834 39.384 18.9434 39.384ZM56.2589 15.144V39H52.7069L52.8509 33.384C51.9549 35.24 50.7549 36.712 49.2509 37.8C47.7469 38.856 46.0349 39.384 44.1149 39.384C42.0989 39.384 40.4029 38.92 39.0269 37.992C37.6509 37.032 36.5949 35.72 35.8589 34.056C35.1229 32.36 34.7549 30.408 34.7549 28.2C34.7549 25.544 35.2349 23.208 36.1949 21.192C37.1549 19.144 38.4989 17.56 40.2269 16.44C41.9549 15.288 43.9549 14.712 46.2269 14.712C47.8269 14.712 49.2349 15.08 50.4509 15.816C51.6669 16.552 52.5629 17.496 53.1389 18.648L53.6189 15.144H56.2589ZM46.3229 17.88C43.9229 17.88 42.0029 18.792 40.5629 20.616C39.1229 22.44 38.4029 24.872 38.4029 27.912C38.4029 30.504 38.9469 32.536 40.0349 34.008C41.1549 35.448 42.6749 36.168 44.5949 36.168C46.1629 36.168 47.5709 35.704 48.8189 34.776C50.0669 33.848 51.0429 32.568 51.7469 30.936C52.4509 29.304 52.8029 27.432 52.8029 25.32C52.8029 23.016 52.2269 21.208 51.0749 19.896C49.9229 18.552 48.3389 17.88 46.3229 17.88ZM69.3232 39.384C67.3392 39.384 65.8672 38.84 64.9072 37.752C63.9472 36.664 63.4672 35.224 63.4672 33.432V3.48H66.9712V33C66.9712 34.056 67.1952 34.856 67.6432 35.4C68.0912 35.944 68.8272 36.216 69.8512 36.216C70.3312 36.216 70.7952 36.152 71.2432 36.024C71.6912 35.864 72.0432 35.704 72.2992 35.544L73.2592 38.184C72.8112 38.568 72.2192 38.856 71.4832 39.048C70.7792 39.272 70.0592 39.384 69.3232 39.384ZM91.6488 15.144H95.1528L85.8408 39H80.9448L73.2168 15.144H76.9608L83.5848 36.168L91.6488 15.144ZM94.0589 39L108.843 4.92H115.419L129.627 39H121.659L118.923 32.04H104.859L102.027 39H94.0589ZM107.547 25.512H116.331L112.011 14.52L107.547 25.512ZM139.192 39.48C136.728 39.48 134.824 38.808 133.48 37.464C132.168 36.088 131.512 34.104 131.512 31.512V3.48H138.856V30.984C138.856 32.456 139.544 33.192 140.92 33.192C141.656 33.192 142.28 33.016 142.792 32.664L144.568 37.896C144.024 38.344 143.272 38.712 142.312 39C141.352 39.32 140.312 39.48 139.192 39.48ZM158.138 39.48C155.418 39.48 153.066 38.984 151.082 37.992C149.098 36.968 147.562 35.544 146.474 33.72C145.386 31.864 144.842 29.672 144.842 27.144C144.842 24.584 145.386 22.328 146.474 20.376C147.594 18.424 149.082 16.904 150.938 15.816C152.826 14.728 154.954 14.184 157.322 14.184C160.01 14.184 162.202 14.792 163.898 16.008C165.594 17.224 166.762 18.952 167.402 21.192C168.074 23.4 168.218 25.976 167.834 28.92H152.33C152.522 30.136 153.162 31.16 154.25 31.992C155.338 32.792 156.826 33.192 158.714 33.192C159.578 33.192 160.49 33.016 161.45 32.664C162.41 32.28 163.226 31.72 163.898 30.984L167.978 35.304C166.922 36.584 165.61 37.608 164.042 38.376C162.506 39.112 160.538 39.48 158.138 39.48ZM157.466 19.512C156.186 19.512 155.098 19.896 154.202 20.664C153.338 21.432 152.762 22.504 152.474 23.88H161.642C161.674 22.376 161.306 21.272 160.538 20.568C159.802 19.864 158.778 19.512 157.466 19.512ZM189.092 21.672C188.452 21.416 187.588 21.288 186.5 21.288C184.836 21.288 183.508 21.88 182.516 23.064C181.524 24.216 180.804 26.104 180.356 28.728C179.908 31.32 179.684 34.744 179.684 39H172.388V23.16L172.292 14.568H179.636L179.3 20.664C180.164 18.328 181.316 16.664 182.756 15.672C184.228 14.68 185.796 14.184 187.46 14.184C188.004 14.184 188.5 14.216 188.948 14.28C189.428 14.344 189.908 14.456 190.388 14.616L189.092 21.672ZM206.066 39.48C203.058 39.48 200.674 38.648 198.914 36.984C197.154 35.288 196.29 33.064 196.322 30.312L196.514 20.664H192.482V14.568H196.61L196.658 9.576H203.954L203.906 14.568H211.538V20.664H203.81L203.666 29.496C203.666 30.648 203.97 31.544 204.578 32.184C205.186 32.824 206.098 33.144 207.314 33.144C208.018 33.144 208.69 33.064 209.33 32.904C210.002 32.712 210.69 32.36 211.394 31.848L213.506 37.464C211.874 38.808 209.394 39.48 206.066 39.48ZM239.137 14.664V39H231.745L231.985 35.352C230.225 38.104 227.617 39.48 224.161 39.48C221.985 39.48 220.129 38.984 218.593 37.992C217.057 37 215.889 35.624 215.089 33.864C214.289 32.104 213.889 30.088 213.889 27.816C213.889 25.096 214.449 22.712 215.569 20.664C216.689 18.616 218.193 17.032 220.081 15.912C221.969 14.76 224.081 14.184 226.417 14.184C227.953 14.184 229.313 14.504 230.497 15.144C231.681 15.752 232.593 16.568 233.233 17.592L233.857 14.664H239.137ZM227.137 20.568C225.377 20.568 223.985 21.224 222.961 22.536C221.969 23.848 221.473 25.528 221.473 27.576C221.473 29.336 221.857 30.696 222.625 31.656C223.425 32.616 224.497 33.096 225.841 33.096C227.473 33.096 228.865 32.424 230.017 31.08C231.201 29.736 231.793 27.976 231.793 25.8C231.793 24.168 231.377 22.888 230.545 21.96C229.713 21.032 228.577 20.568 227.137 20.568Z" fill="white"/>
</g>
<defs>
<filter id="filter0_d_29_298" x="0.46344" y="0.480011" width="244.673" height="48" filterUnits="userSpaceOnUse" color-interpolation-filters="sRGB">
<feFlood flood-opacity="0" result="BackgroundImageFix"/>
<feColorMatrix in="SourceAlpha" type="matrix" values="0 0 0 0 0 0 0 0 0 0 0 0 0 0 0 0 0 0 127 0" result="hardAlpha"/>
<feOffset dy="3"/>
<feGaussianBlur stdDeviation="3"/>
<feComposite in2="hardAlpha" operator="out"/>
<feColorMatrix type="matrix" values="0 0 0 0 0 0 0 0 0 0 0 0 0 0 0 0 0 0 0.2 0"/>
<feBlend mode="normal" in2="BackgroundImageFix" result="effect1_dropShadow_29_298"/>
<feBlend mode="normal" in="SourceGraphic" in2="effect1_dropShadow_29_298" result="shape"/>
</filter>
</defs>
</svg>
